<svg width="128" height="14" viewBox="0 0 128 14" fill="none" xmlns="http://www.w3.org/2000/svg">
<g clip-path="url(#clip0_295_1028)">
<path d="M61.7549 13.99C60.6908 13.99 59.7566 14.01 58.7975 13.97C58.6351 13.97 58.4403 13.7203 58.3329 13.5554C57.3721 11.9735 56.4221 10.3857 55.483 8.79216C55.4218 8.652 55.3178 8.53488 55.1858 8.45767C55.0538 8.38045 54.9008 8.34715 54.7486 8.36254C53.9618 8.39001 53.175 8.36254 52.3083 8.36254V13.9451H49.5233V0.0599508C49.6056 0.0417814 49.689 0.0292649 49.7731 0.0224858C52.3732 0.0224858 54.9759 -0.0399604 57.5736 0.0399682C60.8482 0.139879 62.704 3.50937 61.1054 6.34184C60.506 7.4034 59.5543 7.99037 58.3129 8.2951C59.4569 10.1834 60.5759 12.0343 61.7549 13.99ZM52.3458 2.75005V5.68243C54.1367 5.68243 55.8776 5.7149 57.6161 5.66744C58.3904 5.64496 58.8824 5.00054 58.8799 4.23622C58.8774 3.4719 58.3804 2.78752 57.646 2.76754C55.8876 2.71259 54.1292 2.75005 52.3458 2.75005Z" fill="#262626"/>
<path d="M98.3447 0.0174321C99.1839 0.0174321 99.9757 -0.0100429 100.763 0.0374147C101.011 0.0886017 101.231 0.232369 101.377 0.439556C103.438 3.23373 105.489 6.03623 107.529 8.84705C107.644 9.00691 107.779 9.15677 108.011 9.459V0.0524007H110.776V13.99C109.904 13.99 109.028 14.0174 108.171 13.9675C107.986 13.9675 107.789 13.6877 107.649 13.5004C105.617 10.7329 103.592 7.96284 101.572 5.19032C101.454 5.02796 101.322 4.8731 101.072 4.55838V13.96H98.3247L98.3447 0.0174321Z" fill="#262626"/>
<path d="M32.8232 0.0349121H43.8508V2.74999H35.6307V5.63241H42.9391V8.34499H35.6232V11.2274H43.8458V13.9575H32.8232V0.0349121Z" fill="#262626"/>
<path d="M126.744 5.61993V8.335H119.413V11.2249H127.616V13.955H116.588V0.0673828H127.631V2.74999H119.388V5.61743L126.744 5.61993Z" fill="#262626"/>
<path d="M-0.00500488 13.9351V0.0524902H11.0451V2.75008H2.80249V5.61003H10.1684V8.35758H2.7925V11.2175H11.0551V13.9351H-0.00500488Z" fill="#262626"/>
<path d="M80.1959 13.9901C80.7429 12.6288 81.2625 11.3424 81.777 10.0561C83.0459 6.89639 84.3222 3.74171 85.5711 0.564542C85.7435 0.124935 85.9633 -0.0399165 86.4353 4.77936e-05C86.9923 0.0475054 87.5593 -0.022432 88.1163 0.0275234C88.235 0.0412101 88.3492 0.0810059 88.4507 0.144058C88.5522 0.207109 88.6385 0.29185 88.7033 0.392196C90.51 4.83823 92.3034 9.28759 94.0835 13.7403C94.1072 13.8218 94.1231 13.9055 94.131 13.9901C93.2443 13.9901 92.3825 14.0075 91.5183 13.9751C91.4276 13.9539 91.3428 13.9126 91.2701 13.8542C91.1975 13.7959 91.1389 13.7219 91.0987 13.6379C90.8014 12.9535 90.5292 12.2541 90.2744 11.5522C90.2437 11.4127 90.1617 11.2898 90.0447 11.2079C89.9276 11.126 89.7841 11.0911 89.6425 11.1101C87.9989 11.1301 86.3562 11.1301 84.7144 11.1101C84.5723 11.0925 84.4287 11.1286 84.3118 11.2113C84.1949 11.294 84.1131 11.4173 84.0825 11.5572C83.8327 12.2166 83.5329 12.8586 83.3056 13.5255C83.1733 13.9126 82.9659 14.025 82.5763 14C81.8145 13.9651 81.0502 13.9901 80.1959 13.9901ZM89.033 8.47748C88.4136 6.8864 87.8316 5.38274 87.2471 3.87908L87.0948 3.90156C86.5028 5.40022 85.9083 6.91387 85.2914 8.47748H89.033Z" fill="#262626"/>
<path d="M14.9067 0.0199957C15.8858 0.0199957 16.7576 -0.00498532 17.6243 0.0399745C17.7891 0.0399745 18.0139 0.289754 18.0889 0.479584C19.2703 3.40947 20.4318 6.34684 21.5857 9.28172C21.6857 9.5315 21.7931 9.76879 21.9629 10.1684C22.1253 9.78378 22.2352 9.5315 22.3376 9.27423C23.494 6.35683 24.6555 3.44444 25.7895 0.51955C25.8284 0.354066 25.9294 0.209884 26.0717 0.116883C26.214 0.0238809 26.3866 -0.0108108 26.5538 0.0199957C27.3206 0.0574623 28.0874 0.0199957 28.9317 0.0199957C28.7593 0.462101 28.6145 0.844258 28.4621 1.22392C26.8136 5.31027 25.1684 9.39579 23.5265 13.4805C23.3717 13.8701 23.1918 14.025 22.7772 14C22.0279 13.96 21.2785 14 20.5292 14C18.6534 9.33917 16.795 4.7183 14.9067 0.0199957Z" fill="#262626"/>
<path d="M67.0476 0.0499268H69.7802V11.2274H77.1336V13.945H67.0476V0.0499268Z" fill="#262626"/>
</g>
<defs>
<clipPath id="clip0_295_1028">
<rect width="127.624" height="14" fill="white"/>
</clipPath>
</defs>
</svg>
